<svg xmlns="http://www.w3.org/2000/svg" width="408.245" height="405.449"><path fill="#00395D" d="M3.691 202.382c0 110.37 89.471 199.843 199.842 199.843 10.52 0 20.848-.82 30.928-2.385 10.34-47.041 15.838-95.896 15.838-146.045 0-88.774-17.105-173.548-48.154-251.238C92.414 3.306 3.691 92.478 3.691 202.382z"/><path fill="#27AED7" d="M321.615 40.837c-35.296 62.991-55.441 135.617-55.441 212.958 0 45.598 7.042 89.542 20.019 130.856 45.271-20.527 81.528-57.428 101.237-103.139a211.19 211.19 0 0 0 14.833-55.112 202.17 202.17 0 0 0 1.439-24.009c-.001-66.364-32.329-125.169-82.087-161.554z"/></svg>